<?xml version="1.0" encoding="utf-8"?>
<!-- Generator: Adobe Illustrator 23.0.3, SVG Export Plug-In . SVG Version: 6.00 Build 0)  -->
<svg version="1.1" id="Layer_2" xmlns="http://www.w3.org/2000/svg" xmlns:xlink="http://www.w3.org/1999/xlink" x="0px" y="0px"
	 viewBox="0 0 153.6 155.9" style="enable-background:new 0 0 153.6 155.9;" xml:space="preserve">
<style type="text/css">
	.st0{fill:#C3E6E2;}
	.st1{fill:#D9E2E1;}
	.st2{fill:#7DCCBF;}
	.st3{fill:#9BD7D0;}
	.st4{opacity:0.69;}
	.st5{fill:#502412;}
	.st6{fill:#6D3515;}
	.st7{fill:#EBF6F5;}
</style>
<g id="XMLID_3_">
	<g id="XMLID_4_">
		<path class="st0" d="M153.6,0.2l-3.2,77.4l-2.6,53.2v21.3c0,2.1-1.7,3.9-3.7,3.9H76.6V0.1L153.6,0.2z"/>
		<path class="st1" d="M76.6,0.1v155.8h-67c-2,0-3.7-1.8-3.7-3.9v-17.8L3.8,78L0,0L76.6,0.1z"/>
	</g>
</g>
<g id="XMLID_1_">
	<path class="st2" d="M147.2,6.1l-3,67.1l-2.4,46.1v18.4c0,1.9-1.5,3.4-3.4,3.4H76.4V6.1L147.2,6.1z"/>
	<path class="st3" d="M76.4,6.1v135.2H14.7c-1.8,0-3.4-1.5-3.4-3.4v-15.5l-2-48.8L5.8,6L76.4,6.1z"/>
</g>
<g id="XMLID_2_" class="st4">
	<path class="st5" d="M144.3,73.4l-2.4,46.1V138c0,1.9-1.5,3.4-3.4,3.4H76.4V74.1c12.6-2.9,21.5-4.2,35.3-0.4
		C122,76.6,134.2,78.2,144.3,73.4z"/>
	<path class="st6" d="M76.4,74.1v67.2H14.6c-1.9,0-3.4-1.5-3.4-3.4v-15.5l-2-48.8C30.9,64.8,51,80,73.4,74.8
		C74.4,74.6,75.4,74.3,76.4,74.1z"/>
</g>
<path class="st0" d="M56.7,126.1l-29-8.7c-6.3-1.9-9.9-8.6-8.1-14.9l8.7-29c1.9-6.3,8.6-9.9,14.9-8.1l29,8.7
	c6.3,1.9,9.9,8.6,8.1,14.9l-8.7,29C69.8,124.4,63,128,56.7,126.1z"/>
<path class="st0" d="M127.1,122.2l-28.3,10.9c-6.2,2.4-13.1-0.7-15.5-6.9L72.5,97.9c-2.4-6.2,0.7-13.1,6.9-15.5l28.3-10.9
	c6.2-2.4,13.1,0.7,15.5,6.9l10.9,28.3C136.4,112.9,133.3,119.8,127.1,122.2z"/>
<path class="st7" d="M100.3,106.7l-29.4,7.1c-6.4,1.6-12.9-2.4-14.5-8.8l-7.1-29.4C47.6,69.1,51.6,62.6,58,61l29.4-7.1
	c6.4-1.6,12.9,2.4,14.5,8.8l7.1,29.4C110.7,98.6,106.7,105.1,100.3,106.7z"/>
<g id="XMLID_5_" class="st4">
	<path class="st5" d="M144.3,73.4l-2.4,46.1V138c0,1.9-1.5,3.4-3.4,3.4H76.4V74.1c12.6-2.9,21.5-4.2,35.3-0.4
		C122,76.6,134.2,78.2,144.3,73.4z"/>
	<path class="st6" d="M76.4,74.1v67.2H14.6c-1.9,0-3.4-1.5-3.4-3.4v-15.5l-2-48.8C30.9,64.8,51,80,73.4,74.8
		C74.4,74.6,75.4,74.3,76.4,74.1z"/>
</g>
</svg>
