<?xml version="1.0" encoding="utf-8"?>
<!-- Generator: Adobe Illustrator 23.0.3, SVG Export Plug-In . SVG Version: 6.00 Build 0)  -->
<svg version="1.1" id="Logo" xmlns="http://www.w3.org/2000/svg" xmlns:xlink="http://www.w3.org/1999/xlink" x="0px" y="0px"
	 viewBox="0 0 165.29 154.58" style="enable-background:new 0 0 165.29 154.58;" xml:space="preserve">
<style type="text/css">
	.st0{fill:#EBF6F5;}
	.st1{fill:#9BD7D0;}
	.st2{fill:#C3E6E2;}
	.st3{fill:#FFFFFF;}
	.st4{fill:#6D3515;}
	.st5{fill:#51230E;}
	.st6{fill:#733A18;}
	.st7{fill:#A45D26;}
	.st8{fill:#874C20;}
	.st9{fill:#E38925;}
	.st10{fill:#C1782A;}
	.st11{fill:#7DCCBF;}
	.st12{fill:#D6EEEB;}
</style>
<g>
	<path class="st0" d="M83.62,1.13H8.99c0,0,3.01,128.68,3.01,137.92c0,9.24,1.65,13.67,15.8,13.67c14.15,0,55.89,0,55.82,0
		C83.56,152.72,83.61,22.56,83.62,1.13z"/>
	<path class="st1" d="M37.89,68.33c7.59,0.55,11.14,2.52,16.06,4.02c3.28,1.01,7.18,1.79,13.3,1.79c2.69,0,4.94-0.15,6.91-0.42
		c3.95-0.51,6.73-1.44,9.44-2.4c0.01-28.93,0.02-58.09,0.02-66.83H12.89c0,0,1.71,34.45,3.23,66.88c4.43-1.56,8.63-3.2,17.46-3.2
		C35.15,68.18,36.59,68.23,37.89,68.33z"/>
	<path class="st0" d="M57.4,50.57c-1.19,0.26-2.7,1.3-3.36,2.33l-2.03,3.17c-0.65,1.03-0.98,2.84-0.73,4.02l1.32,6.04l1.36,6.22
		c3.28,1.01,7.18,1.79,13.3,1.79c2.69,0,4.94-0.15,6.91-0.42c3.97-0.51,6.74-1.45,9.46-2.4V44.85L57.4,50.57z"/>
	<path class="st2" d="M83.63,1.13h74.63c0,0-3.01,128.68-3.01,137.92c0,9.24-1.65,13.67-15.8,13.67c-14.15,0-55.89,0-55.82,0
		C83.69,152.72,83.64,22.56,83.63,1.13z"/>
	<path class="st3" d="M83.65,71.3c-0.02,0.01-0.03,0.01-0.05,0.02c-0.01,33.94-0.01,67.57,0.03,67.57S83.66,105.25,83.65,71.3z"/>
	<path class="st4" d="M83.6,71.32c-2.71,0.95-5.48,1.88-9.44,2.4c-1.97,0.27-4.23,0.42-6.91,0.42c-6.12,0-10.01-0.78-13.3-1.79
		c-4.92-1.5-8.47-3.48-16.06-4.02c-1.31-0.1-2.74-0.15-4.31-0.15c-8.83,0-13.03,1.64-17.46,3.2c1.22,26.09,2.33,50.89,2.33,55.39
		c0,10.11,1.54,12.12,14.79,12.12c13.24,0,50.45,0,50.39,0C83.59,138.89,83.59,105.26,83.6,71.32z"/>
	<path class="st5" d="M134.59,74.13c-0.78,0-1.53-0.01-2.25-0.04h-0.01c-10.31-0.35-13.73-3.16-20.48-4.78
		c-2.74-0.65-6.02-1.1-10.53-1.12c-0.13-0.01-0.27-0.01-0.41-0.01c-8.7,0-12.91,1.59-17.27,3.13c0.01,33.94,0.01,67.58-0.03,67.58
		c-0.06,0,37.15,0,50.39,0c13.24,0,14.79-2.01,14.79-12.12c0-4.51,1.11-29.37,2.34-55.51C147.02,72.71,142.81,74.13,134.59,74.13z"
		/>
	<path class="st6" d="M147.81,101.49l-0.82,3.67c-0.27,1.19-1.33,2.7-2.35,3.34l-34.85,22.03c-1.03,0.65-2.84,0.97-4.02,0.7
		l-3.68-0.82c-1.19-0.27-2.69-1.33-3.34-2.35l-13.73-21.71l-1.4-2.23l-0.39-0.61l-6.52-10.3c-0.64-1.03-0.96-2.84-0.7-4.02
		l0.83-3.68c0.27-1.19,1.33-2.69,2.35-3.34l4.41-2.78l2.36-1.5l15.33-9.69h0.01c4.5,0.02,7.79,0.47,10.53,1.12
		c6.75,1.63,10.16,4.43,20.48,4.78h0.01l14.78,23.38C147.77,98.5,148.08,100.3,147.81,101.49z"/>
	<path class="st7" d="M83.62,71.32v32.1l-0.39,0.09l-13.66,2.97c-1.19,0.27-3-0.06-4.02-0.72l-3.17-2.03
		c-1.03-0.66-2.08-2.17-2.33-3.36l-6.1-28.02c3.28,1.01,7.18,1.79,13.3,1.79c2.67,0,4.92-0.15,6.89-0.42c0.01,0,0.01,0,0.02,0
		c3.77-0.48,6.46-1.36,9.05-2.26C83.28,71.44,83.45,71.37,83.62,71.32z"/>
	<path class="st8" d="M115.25,92.22l-2.03,3.16c-0.66,1.03-2.17,2.08-3.36,2.34l-23.6,5.12l-2.63,0.58v-32.1
		c0.19-0.07,0.4-0.14,0.47-0.17c4.2-1.49,8.42-2.97,16.83-2.97c0.14,0,0.27,0,0.4,0.01h0.01c4.5,0.02,7.79,0.47,10.53,1.12
		l4.11,18.88C116.23,89.38,115.9,91.19,115.25,92.22z"/>
	<path class="st9" d="M83.62,77.06v33.27l-5.92,16.83c-0.41,1.14-1.63,2.51-2.73,3.04l-3.39,1.63c-1.1,0.52-2.93,0.63-4.09,0.22
		l-38.88-13.68c-1.16-0.41-2.52-1.63-3.05-2.73l-1.63-3.39c-0.52-1.1-0.62-2.93-0.22-4.09L37.4,69.28c0.11-0.31,0.28-0.63,0.49-0.95
		c7.59,0.55,11.14,2.52,16.06,4.02c3.28,1.01,7.18,1.79,13.3,1.79c2.67,0,4.92-0.15,6.89-0.42L83.62,77.06z"/>
	<path class="st10" d="M91.16,84.19l-1.63-3.39c-0.53-1.1-1.9-2.32-3.04-2.73l-2.87-1.01v33.28l7.76-22.07
		C91.79,87.12,91.69,85.28,91.16,84.19z"/>
	<path class="st11" d="M101.33,68.19c4.5,0.02,7.79,0.47,10.53,1.12c6.75,1.63,10.16,4.43,20.48,4.78h0.01
		c0.72,0.03,1.47,0.04,2.25,0.04c8.22,0,12.43-1.42,16.55-2.88c1.52-32.4,3.22-66.77,3.22-66.77H83.63c0,8.74,0.02,37.89,0.02,66.81
		c4.36-1.54,8.57-3.13,17.27-3.13C101.06,68.18,101.2,68.18,101.33,68.19z"/>
	<path class="st2" d="M132.33,74.09c-10.31-0.35-13.73-3.16-20.48-4.78c-2.74-0.65-6.02-1.1-10.53-1.12l9.04-5.72l3.69-2.33
		c1.03-0.64,2.84-0.96,4.02-0.7l3.67,0.83c1.19,0.27,2.7,1.33,3.34,2.35L132.33,74.09z"/>
	<path class="st12" d="M52.59,66.13l21.57,7.59c-1.97,0.27-4.23,0.42-6.91,0.42c-6.12,0-10.01-0.78-13.3-1.79
		c-4.92-1.5-8.47-3.48-16.06-4.02c0.57-0.88,1.43-1.7,2.24-2.1l3.4-1.63c1.09-0.52,2.93-0.62,4.08-0.23L52.59,66.13z"/>
	<path class="st12" d="M110.37,62.46l-3.17-14.55c-0.27-1.19-1.32-2.71-2.33-3.36l-3.17-2.03c-1.03-0.66-2.84-0.98-4.02-0.73
		l-14.06,3.06v26.46c4.37-1.54,8.58-3.14,17.3-3.14c0.14,0,0.28,0,0.41,0.01c4.5,0.02,7.79,0.47,10.53,1.12L110.37,62.46z"/>
</g>
</svg>
