<?xml version="1.0" encoding="utf-8"?>
<!-- Generator: Adobe Illustrator 23.0.3, SVG Export Plug-In . SVG Version: 6.00 Build 0)  -->
<svg version="1.1" id="Logo" xmlns="http://www.w3.org/2000/svg" xmlns:xlink="http://www.w3.org/1999/xlink" x="0px" y="0px"
	 viewBox="0 0 165.29 154.58" style="enable-background:new 0 0 165.29 154.58;" xml:space="preserve">
<style type="text/css">
	.st0{fill:#FFFFFF;}
	.st1{fill:#F1E8AA;}
	.st2{fill:#FFCE6E;}
	.st3{fill:#AA8B2F;}
	.st4{fill:#B13E25;}
</style>
<g>
	<path class="st0" d="M58.27,4.71c0-0.57,0.45-1.08,1.08-1.08h2.21c0.57,0,1.08,0.51,1.08,1.08v34.83h16.34
		c0.62,0,1.08,0.51,1.08,1.08v1.64c0,0.57-0.45,1.08-1.08,1.08H59.35c-0.62,0-1.08-0.51-1.08-1.08V4.71z"/>
	<path class="st0" d="M87.12,4.71c0-0.57,0.51-1.08,1.08-1.08h2.27c0.57,0,1.08,0.51,1.08,1.08v37.55c0,0.57-0.51,1.08-1.08,1.08
		H88.2c-0.57,0-1.08-0.51-1.08-1.08V4.71z"/>
	<path class="st0" d="M97.73,5.11c-0.34-0.74,0.11-1.48,0.96-1.48h2.27c0.51,0,0.85,0.34,0.96,0.62l14.12,31.77h0.23L130.4,4.26
		c0.11-0.28,0.51-0.62,0.96-0.62h2.27c0.85,0,1.3,0.74,0.96,1.48l-17.24,38.18c-0.17,0.34-0.51,0.62-0.96,0.62h-0.57
		c-0.4,0-0.79-0.28-0.96-0.62L97.73,5.11z"/>
	<path class="st0" d="M140.78,4.71c0-0.57,0.45-1.08,1.08-1.08h22.35c0.62,0,1.08,0.51,1.08,1.08v1.64c0,0.57-0.45,1.08-1.08,1.08
		h-19.06v13.84h16.28c0.57,0,1.08,0.51,1.08,1.08V24c0,0.62-0.51,1.08-1.08,1.08h-16.28v14.46h19.06c0.62,0,1.08,0.51,1.08,1.08
		v1.64c0,0.57-0.45,1.08-1.08,1.08h-22.35c-0.62,0-1.08-0.51-1.08-1.08V4.71z"/>
	<path class="st0" d="M65.96,56.17c9.95,0,17.91,8.01,17.91,17.96c0,9.95-7.96,17.86-17.91,17.86c-9.95,0-17.86-7.91-17.86-17.86
		C48.09,64.18,56.01,56.17,65.96,56.17z M65.96,88.52c7.91,0,14.43-6.47,14.43-14.38c0-7.91-6.52-14.48-14.43-14.48
		c-7.91,0-14.38,6.57-14.38,14.48C51.58,82.05,58.05,88.52,65.96,88.52z"/>
	<path class="st0" d="M91.48,57.61c0-0.5,0.4-0.95,0.95-0.95h12.89c5.97,0,10.85,4.68,10.85,10.6c0,4.58-3.04,8.41-7.37,10.15
		l6.82,12.64c0.35,0.65,0,1.44-0.85,1.44h-2.54c-0.45,0-0.7-0.25-0.8-0.45l-6.62-13.19h-9.5v12.69c0,0.5-0.45,0.95-0.95,0.95h-1.94
		c-0.55,0-0.95-0.45-0.95-0.95V57.61z M105.07,74.58c3.83,0,7.17-3.18,7.17-7.27c0-3.78-3.33-7.02-7.17-7.02h-9.65v14.28H105.07z"/>
	<path class="st0" d="M15.31,110.81H5.44c-0.62,0-1.08-0.51-1.08-1.08v-1.64c0-0.57,0.45-1.08,1.08-1.08h24.05
		c0.62,0,1.08,0.51,1.08,1.08v1.64c0,0.57-0.45,1.08-1.08,1.08h-9.87v34.83c0,0.57-0.51,1.08-1.08,1.08h-2.16
		c-0.57,0-1.08-0.51-1.08-1.08V110.81z"/>
	<path class="st0" d="M38.12,108.37c-0.23-0.79,0.23-1.36,1.02-1.36h2.38c0.45,0,0.91,0.4,1.02,0.79l7.89,29.38h0.23l9.47-30.12
		c0.11-0.34,0.45-0.62,0.96-0.62h1.02c0.45,0,0.85,0.28,0.96,0.62l9.64,30.12h0.23l7.71-29.38c0.11-0.4,0.57-0.79,1.02-0.79h2.38
		c0.79,0,1.25,0.57,1.02,1.36l-10.72,38.12c-0.11,0.45-0.57,0.79-1.02,0.79h-0.91c-0.4,0-0.79-0.28-0.96-0.62l-9.81-30.69h-0.28
		l-9.64,30.69c-0.17,0.34-0.57,0.62-0.96,0.62h-0.91c-0.45,0-0.91-0.34-1.02-0.79L38.12,108.37z"/>
	<path class="st0" d="M93.8,108.09c0-0.57,0.51-1.08,1.08-1.08h2.27c0.57,0,1.08,0.51,1.08,1.08v37.55c0,0.57-0.51,1.08-1.08,1.08
		h-2.27c-0.57,0-1.08-0.51-1.08-1.08V108.09z"/>
	<path class="st0" d="M147.64,110.81h-9.87c-0.62,0-1.08-0.51-1.08-1.08v-1.64c0-0.57,0.45-1.08,1.08-1.08h24.05
		c0.62,0,1.08,0.51,1.08,1.08v1.64c0,0.57-0.45,1.08-1.08,1.08h-9.87v34.83c0,0.57-0.51,1.08-1.08,1.08h-2.16
		c-0.57,0-1.08-0.51-1.08-1.08V110.81z"/>
	<g>
		<path class="st1" d="M132.02,138.68c0,0,4.84-8.81,2.08-13.77c-2.76-4.96-17.38-7.61-21.61-13.43c-4.23-5.82-5.44,4.29-5.44,4.29
			s1.61,8.07,14.52,12.84C130.11,131.76,131.47,136.67,132.02,138.68z"/>
		<path class="st2" d="M126.64,99.04c-2.37-1.31-5.26-1.29-7.67-0.05c-1.81,0.93-3.61,1.87-5.36,2.9c-1.2,0.7-2.41,1.42-3.47,2.31
			c-3.06,2.57-3.73,6.51-3.31,10.3c0.26,2.34,1.24,3.97,2.59,5.81c-0.77-1.05-0.6-2.81-0.04-3.89c1.23-2.38,4.13-3.84,6.55-4.66
			c1.81-0.62,3.7-1,5.54-1.51c1.71-0.47,3.45-1.04,4.88-2.12c0.8-0.6,1.47-1.35,1.96-2.21C130.38,102.3,128.77,100.22,126.64,99.04z
			"/>
		<path class="st2" d="M115.25,147.61c6.65-1.86,15.27-4.98,16.77-8.93c4.58-8.87,2.42-13.03,2.42-13.03
			c-0.03,4.4-6.55,6.6-6.55,6.6c-3.25,0.87-7,1.87-9.72,2.61c-5.91,1.61-8.03,1.97-10.38,5.32c-1.01,1.44-0.97,4.66-0.79,6.92l0,0
			c0,0-0.04,0.54,0.27,2.43c0.44,4,1.02,4.48,2.52,5.05c-2.54-3.8,1.49-5.76,3.88-6.54C114.18,147.9,114.71,147.76,115.25,147.61
			C115.25,147.61,115.25,147.61,115.25,147.61L115.25,147.61z"/>
	</g>
	<g>
		<path class="st3" d="M50.32,25.39c1.15-12.16-7.58-23.32-22.54-25.15C12.82-1.58,1.24,6.98,0.09,19.14
			C-1.05,31.3,8.67,42.46,23.63,44.29C38.59,46.11,49.17,37.55,50.32,25.39z"/>
		<path class="st4" d="M46.12,24.76c0.44-4.63-2.51-8.79-6.58-9.29c-4.07-0.5-7.72,2.86-8.16,7.49c-0.44,4.63,2.51,8.79,6.58,9.29
			C42.03,32.74,45.68,29.39,46.12,24.76z"/>
	</g>
</g>
</svg>
